<svg xmlns="http://www.w3.org/2000/svg" viewBox="0 0 64 64"><path fill="#2a2f64" d="M30.43 0c-4.71 0-8.55 3.04-8.55 6.8 0 1.87.95 3.64 2.64 4.91l-.38 2.24c-.06.36.09.72.38.94a.96.96 0 0 0 1 .09l3.23-1.53C34.22 14.32 39 10.98 39 6.8 38.99 3.04 35.15 0 30.43 0zm0 11.65c-.53 0-1.09-.06-1.65-.16a.923.923 0 0 0-.59.08l-1.83.87.17-1.01a.976.976 0 0 0-.44-.98c-1.45-.93-2.28-2.26-2.28-3.65 0-2.68 2.97-4.86 6.61-4.86 3.66 0 6.62 2.18 6.62 4.86s-2.96 4.85-6.61 4.85z"/><path fill="#d6e9f2" d="M30.43 1.94c-3.65 0-6.61 2.18-6.61 4.86 0 1.39.82 2.72 2.28 3.65.33.21.49.59.44.98l-.17 1.01 1.83-.87c.18-.09.39-.12.59-.08.56.11 1.12.16 1.65.16 3.66 0 6.62-2.17 6.62-4.85s-2.98-4.86-6.63-4.86zm-3.48 5.83c-.53 0-.97-.44-.97-.97 0-.54.43-.97.96-.97h.01a.97.97 0 0 1 0 1.94zm3.51 0a.98.98 0 0 1-.98-.97c0-.54.43-.97.96-.97h.02c.53 0 .97.43.97.97 0 .53-.44.97-.97.97zm3.5 0a.98.98 0 0 1-.98-.97c0-.54.43-.97.97-.97h.01c.53 0 .97.43.97.97 0 .53-.44.97-.97.97z"/><path fill="#b6dae7" d="M30.43 1.94c-3.65 0-6.61 2.18-6.61 4.86 0 1.39.82 2.72 2.28 3.65.33.21.49.59.44.98l-.17 1.01 1.83-.87c.18-.09.39-.12.59-.08.56.11 1.12.16 1.65.16 3.66 0 6.62-2.17 6.62-4.85s-2.98-4.86-6.63-4.86zm0 8.74c-.46 0-.95-.05-1.46-.15-.13-.03-.24-.04-.36-.04-.29 0-.57.07-.83.19l-.31.15c-.11-.49-.41-.92-.84-1.2-1.16-.75-1.83-1.77-1.83-2.83 0-2.1 2.59-3.89 5.64-3.89 3.06 0 5.65 1.78 5.65 3.89s-2.6 3.88-5.66 3.88z"/><path fill="#2a2f64" d="M34.93 6.8c0 .53-.44.97-.97.97a.98.98 0 0 1-.98-.97c0-.54.43-.97.97-.97h.01c.53 0 .97.42.97.97zm-3.5 0c0 .53-.44.97-.97.97a.98.98 0 0 1-.98-.97c0-.54.43-.97.96-.97h.02c.53 0 .97.42.97.97zm-3.51 0c0 .53-.43.97-.97.97-.53 0-.97-.44-.97-.97 0-.54.43-.97.96-.97h.01c.54 0 .97.42.97.97zm23.44 46.79c-.01-.07-.02-.14-.04-.19a.768.768 0 0 0-.1-.18c-.03-.04-.04-.08-.07-.12-.01-.01-.02-.01-.03-.03-.05-.05-.11-.09-.16-.13-.04-.03-.09-.07-.14-.1-.06-.02-.12-.03-.17-.05-.07-.02-.13-.04-.19-.04-.02 0-.03-.01-.05-.01H34.82c-.01 0-.03.01-.04.01-.07 0-.13.02-.19.04s-.12.03-.17.05c-.05.03-.1.07-.14.1-.06.04-.12.08-.16.13-.01.02-.03.02-.04.03-.03.04-.04.08-.06.12-.04.06-.07.12-.1.18-.02.06-.03.13-.04.19-.01.04-.03.08-.03.13v9.32c0 .04.02.08.03.12.01.07.02.13.04.19s.05.12.08.16c.03.04.03.09.06.12.02.02.04.03.05.04.06.07.14.13.21.17.04.02.07.06.12.08.09.04.18.05.28.07.04 0 .07.02.11.02h15.59c.03 0 .06-.02.09-.02.11-.01.21-.03.31-.07.04-.02.07-.05.1-.07.09-.05.16-.12.23-.18.01-.02.03-.02.04-.04.03-.03.03-.07.05-.1a.87.87 0 0 0 .1-.19c.02-.05.03-.11.04-.16 0-.05.02-.09.02-.14v-9.32c-.02-.06-.04-.1-.04-.13zm-3.63 1.09-4.17 3.46c-.53.42-1.34.42-1.85.02l-4.2-3.48h10.22zm-11.94 1.1 3.3 2.73-3.3 2.54v-5.27zm1.87 6.28 2.97-2.3c.59.42 1.28.63 1.99.63.7 0 1.4-.21 1.99-.63l2.97 2.3h-9.92zm11.78-1-3.29-2.55 3.29-2.73v5.28z"/><path fill="#ffdb7c" d="M49.44 55.78v5.28l-3.28-2.55zM39.09 58.51l-3.3 2.54v-5.27z"/><path fill="#ebc15c" d="M47.57 62.06h-9.91l2.97-2.3c.59.42 1.28.63 1.99.63.7 0 1.4-.21 1.99-.63l2.96 2.3z"/><path fill="#ffdb7c" d="m47.73 54.68-4.17 3.46c-.53.42-1.34.42-1.85.02l-4.2-3.48h10.22z"/><path fill="#ebc15c" d="m47.73 54.68-1.32 1.1h-7.58l-1.32-1.1z"/><path fill="#2a2f64" d="M62.27 39.66c0-.65-.25-1.26-.71-1.72-.08-.07-.16-.14-.24-.19.14-.31.21-.64.21-.99 0-.65-.25-1.25-.71-1.72-.46-.46-1.07-.71-1.72-.71h-2.9c.16-.59.38-1.08.53-1.37.63-1.19.64-2.58.02-3.7-.29-.53-.73-1.03-1.18-1.37a1.37 1.37 0 0 0-1.27-.2c-.43.16-.77.5-.88.95l-.47 1.67c-.15.51-.43.98-.83 1.37-1.32 1.26-2.61 2.51-3.46 3.35a1.55 1.55 0 0 0-.85-.26h-2.64c-.84 0-1.53.69-1.53 1.53v9.12c0 .84.69 1.53 1.53 1.53h2.64c.34 0 .65-.12.9-.31.66.4 1.51.89 2.43 1.15.21.07.45.1.7.1h6.2c1.33 0 2.4-1.09 2.4-2.42 0-.24-.04-.49-.11-.73.8-.4 1.36-1.22 1.36-2.17 0-.38-.11-.75-.27-1.08.52-.45.85-1.1.85-1.83zM47.41 45h-1.82v-8.3h1.82V45zm12.45-4.85h-1.58a.97.97 0 0 0-.97.97c0 .53.44.97.97.97h1c.13 0 .25.05.34.15.1.09.15.2.15.33 0 .27-.22.48-.48.48h-1.24c-.53 0-.97.44-.97.97s.44.97.97.97c.16 0 .27.07.34.15.06.05.14.16.14.33 0 .27-.2.48-.47.48h-6.2c-.07 0-.13-.01-.16-.02-.76-.22-1.56-.71-2.14-1.06-.08-.05-.13-.08-.19-.12v-7.66c.64-.64 2.35-2.33 4.12-4 .65-.63 1.12-1.41 1.37-2.25l.19-.71c.01.03.03.06.04.08.31.54.29 1.24-.04 1.85-.38.72-.84 1.85-.89 3.22-.01.26.09.51.27.71.17.18.43.29.7.29h4c.14 0 .25.05.34.15.06.05.15.16.15.34 0 .26-.21.48-.48.48h-.45c-.53 0-.97.44-.97.97 0 .54.44.97.97.97h1.19c.13 0 .25.05.34.15.09.09.14.21.14.34-.03.24-.24.47-.5.47z"/><path fill="#4ebce5" d="M45.59 36.7h1.82V45h-1.82z"/><path fill="#ffe4aa" d="M60.33 39.66c0 .26-.21.48-.48.48h-1.58a.97.97 0 0 0-.97.97c0 .53.44.97.97.97h1c.13 0 .25.05.34.15.1.09.15.2.15.33 0 .27-.22.48-.48.48h-1.24c-.53 0-.97.44-.97.97s.44.97.97.97c.16 0 .27.07.34.15.06.05.14.16.14.33 0 .27-.2.48-.47.48h-6.2c-.07 0-.13-.01-.16-.02-.76-.22-1.56-.71-2.14-1.06-.08-.05-.13-.08-.19-.12v-7.66c.64-.64 2.35-2.33 4.12-4 .65-.63 1.12-1.41 1.37-2.25l.19-.71c.01.03.03.06.04.08.31.54.29 1.24-.04 1.85-.38.72-.84 1.85-.89 3.22-.01.26.09.51.27.71.17.18.43.29.7.29h4c.14 0 .25.05.34.15.06.05.15.16.15.34 0 .26-.21.48-.48.48h-.45c-.53 0-.97.44-.97.97 0 .54.44.97.97.97h1.19a.462.462 0 0 1 .46.48z"/><path fill="#f0d299" d="M55.19 31.67c-.03-.11-.08-.19-.13-.29-.01-.02-.03-.05-.04-.08l-.19.71a5.12 5.12 0 0 1-1.37 2.25c-1.77 1.68-3.48 3.36-4.12 4v-1.17c.64-.64 2.35-2.33 4.12-4 .65-.63 1.12-1.41 1.37-2.25l.19-.71c.01.03.03.06.04.08.25.42.29.96.13 1.46zm3.32 13.79c0 .27-.2.48-.47.48h-6.2c-.07 0-.13-.01-.16-.02-.76-.22-1.56-.71-2.14-1.06-.08-.05-.13-.08-.19-.12v-.94c.07.04.12.07.19.12.58.35 1.39.83 2.14 1.06.04.01.1.02.16.02h6.2c.03 0 .07 0 .1-.01h.01c.1.03.17.08.22.14.06.05.14.16.14.33z"/><path fill="#2a2f64" d="M52.47 18.45c-.49-.16-1.09-.41-1.75-.76-.11-.06-.19-.11-.29-.16.73-1.12 1.15-2.58 1.15-3.98 0-2.59-1.56-4.21-4.07-4.21-2.5 0-4.06 1.62-4.06 4.21 0 1.4.43 2.86 1.15 3.98-.1.06-.18.11-.29.16-.67.35-1.26.6-1.75.76-2.86.88-2.97 4.83-2.98 5 0 .25.1.5.28.7.18.18.44.29.69.29h13.91c.26 0 .51-.11.7-.29a.98.98 0 0 0 .27-.7c.01-.17-.11-4.11-2.96-5zm-4.96-7.16c1.44 0 2.13.75 2.13 2.27 0 2.07-1.19 3.9-2.13 3.9-.93 0-2.12-1.83-2.12-3.9 0-1.53.7-2.27 2.12-2.27zm-5.84 11.22c.17-.83.57-1.92 1.47-2.2.61-.19 1.29-.48 2.08-.89.29-.16.56-.31.81-.46.46.27.95.44 1.48.44.54 0 1.04-.16 1.49-.44.25.15.51.3.81.46.78.41 1.47.71 2.08.89.9.28 1.3 1.37 1.47 2.2H41.67z"/><path fill="#53be9e" d="M53.37 22.51h-11.7c.17-.83.57-1.92 1.47-2.2.61-.19 1.29-.48 2.08-.89.29-.16.56-.31.81-.46.46.27.95.44 1.48.44.54 0 1.04-.16 1.49-.44.25.15.51.3.81.46.78.41 1.47.71 2.08.89.91.28 1.31 1.36 1.48 2.2z"/><path fill="#ffe4aa" d="M49.65 13.56c0 2.07-1.19 3.9-2.13 3.9-.93 0-2.12-1.83-2.12-3.9 0-1.52.7-2.27 2.12-2.27 1.43 0 2.13.74 2.13 2.27z"/><path fill="#3ca480" d="M53.37 22.51h-1.02c-.17-.83-.57-1.92-1.47-2.2-.6-.18-1.3-.48-2.08-.89-.13-.07-.24-.13-.36-.19.19-.07.38-.16.56-.26.25.15.51.3.81.46.78.41 1.47.71 2.08.89.91.27 1.31 1.35 1.48 2.19z"/><path fill="#f0d299" d="M49.65 13.56c0 2.07-1.19 3.9-2.13 3.9-.16 0-.33-.06-.5-.16.81-.49 1.62-2.04 1.62-3.73 0-1.33-.53-2.07-1.62-2.23.16-.03.33-.04.5-.04 1.43-.01 2.13.73 2.13 2.26z"/><path fill="#2a2f64" d="M33.21 38.4c-.75-2.33-2.12-5.16-3.89-7.98-1.76-2.81-3.7-5.29-5.47-6.98-2.15-2.06-3.76-2.71-4.92-1.98-.56.35-.87.93-.95 1.75-1.32 2.71-5.32 9.38-15.26 16.07-.75.48-1.12 1.39-.96 2.22.71 3.65 2.56 6.62 5.52 8.83.38.3.83.45 1.3.45.38 0 .77-.11 1.12-.3.56-.33 1.12-.64 1.67-.93.93 2.78 3.35 6.67 6.56 8.54.16.09.32.13.48.13.18 0 .36-.05.51-.15l4.43-2.76c.28-.17.46-.49.46-.83-.02-2.32-1.35-2.72-2.32-3.01-1.16-.35-2.59-.79-3.64-4.92 6.25-2.4 10.84-2.75 12.97-2.77.35.14.68.2.98.2.37 0 .71-.1 1.02-.28 1.17-.73 1.29-2.47.39-5.3zM8.74 48.79c-.1.06-.2.06-.28 0-2.57-1.92-4.18-4.5-4.78-7.66-.02-.08.03-.17.12-.23.4-.26.77-.53 1.14-.8.82 3.2 2.5 5.89 5.01 8.02-.41.22-.81.43-1.21.67zm12.2 4.52c.64.19.84.26.91.65l-3.42 2.13c-2.72-1.83-4.66-5.37-5.29-7.47 1.01-.5 1.98-.95 2.93-1.35 1.2 4.56 3.06 5.5 4.87 6.04zm-9.12-6.19c-2.74-2.09-4.48-4.88-5.18-8.27 6.34-4.79 9.92-9.42 11.8-12.48.04.14.07.25.11.38.49 1.53 1.25 3.27 2.21 5.07v.02c.01 0 .01 0 .01.01.5.95 1.07 1.92 1.67 2.88.6.97 1.23 1.89 1.86 2.76v.01h.01c1.21 1.66 2.44 3.11 3.6 4.22.1.09.19.17.28.26-3.57.35-9.28 1.54-16.37 5.14zm11.23-15.16c.96-.14 1.88.19 2.33.92.47.75.37 1.71-.18 2.51-.37-.53-.74-1.1-1.12-1.7-.37-.59-.71-1.17-1.03-1.73zm8.79 10.07c-.1.02-.23 0-.4-.07-.07-.03-.13-.08-.19-.1h-.02c-.98-.49-2.77-2.1-4.86-4.84 1.34-1.49 1.65-3.57.65-5.17-1-1.59-3-2.23-4.93-1.67-1.51-3.01-2.18-5.28-2.26-6.4.01-.03.03-.05.03-.08.04-.16.03-.31 0-.45.01-.06.03-.11.05-.15h.07c.91 0 4.2 2.73 7.7 8.33 3.09 4.96 4.25 8.78 4.25 10.12 0 .24-.03.39-.09.48z"/><path fill="#ffdb7c" d="M9.95 48.12c-.41.22-.8.44-1.21.67-.1.06-.2.06-.28 0-2.57-1.92-4.18-4.5-4.78-7.66-.02-.08.03-.17.12-.23.4-.26.77-.53 1.14-.8.82 3.2 2.5 5.88 5.01 8.02z"/><path fill="#edeced" d="M25.19 35.39c-.37-.53-.74-1.1-1.12-1.7-.37-.6-.71-1.17-1.03-1.74.96-.14 1.88.19 2.33.92.47.76.38 1.72-.18 2.52z"/><path fill="#f16e61" d="m21.85 53.96-3.42 2.13c-2.72-1.83-4.66-5.37-5.29-7.47 1.01-.5 1.98-.95 2.93-1.35 1.21 4.55 3.07 5.49 4.88 6.03.63.21.83.28.9.66z"/><path fill="#e25e5a" d="m19.54 55.41-1.12.69c-2.72-1.83-4.66-5.37-5.29-7.47.33-.16.65-.32.97-.48.76 2.14 2.88 5.53 5.44 7.26z"/><path fill="#ebc15c" d="M5.32 41.4c-.36.25-.95.7-1.35.97-.12-.4-.22-.81-.3-1.24-.02-.08.03-.17.12-.23.4-.26.77-.53 1.14-.8.12.44.25.88.39 1.3z"/><path fill="#f16e61" d="M27.91 41.72c-1.15-1.11-2.39-2.56-3.6-4.22h-.01v-.01c-.63-.87-1.26-1.79-1.86-2.76-.6-.96-1.16-1.93-1.67-2.88 0-.01 0-.01-.01-.01v-.02c-.96-1.8-1.72-3.54-2.21-5.07-.04-.13-.07-.24-.11-.38-1.88 3.06-5.46 7.69-11.8 12.48.7 3.39 2.43 6.18 5.18 8.27 7.09-3.6 12.8-4.79 16.37-5.14-.09-.09-.19-.18-.28-.26zM11.57 40.5c-.16.1-.34.15-.51.15-.33 0-.64-.16-.82-.46a.97.97 0 0 1 .31-1.34l3.81-2.39a.96.96 0 0 1 1.33.31c.29.46.15 1.06-.3 1.34l-3.82 2.39zm5.76.73-3.81 2.39c-.16.1-.34.15-.51.15-.33 0-.64-.16-.82-.46a.973.973 0 0 1 .31-1.34l3.81-2.38a.961.961 0 0 1 1.33.31c.28.45.13 1.05-.31 1.33z"/><path fill="#e25e5a" d="M18.9 27.75c-1.75 2.83-5.92 8.1-11.88 12.53-.16-.47-.28-.94-.38-1.44 6.34-4.79 9.92-9.42 11.8-12.48.04.14.07.25.11.38.11.33.22.66.35 1.01z"/><path fill="#ffdb7c" d="M31.93 41.57c0 .22-.03.37-.09.46-.1.02-.23 0-.4-.07-.07-.03-.13-.08-.19-.1h-.02c-.98-.49-2.77-2.1-4.86-4.84 1.34-1.49 1.65-3.57.65-5.17-1-1.59-3-2.23-4.93-1.67-1.51-3.01-2.18-5.28-2.26-6.4.01-.03.03-.05.03-.08.04-.16.03-.31 0-.45.01-.06.03-.11.05-.15h.07c.91 0 4.2 2.73 7.7 8.33 3.1 4.97 4.25 8.79 4.25 10.14z"/><path fill="#ebc15c" d="M31.93 41.57c0 .22-.03.37-.09.46-.1.02-.23 0-.4-.07-.07-.03-.13-.08-.19-.1h-.02c-.04-.02-.09-.05-.14-.08-.15-1.44-1.17-4.64-3.59-8.75a3.67 3.67 0 0 0-.48-1.18c-.23-.37-.52-.7-.85-.95-2.63-3.96-5.05-6.27-6.32-6.99 0-.05-.01-.09-.01-.13.01-.03.03-.05.03-.08.04-.16.03-.31 0-.45.01-.06.03-.11.05-.15h.07c.91 0 4.2 2.73 7.7 8.33 3.09 4.97 4.24 8.79 4.24 10.14z"/><path fill="#2a2f64" d="m15.38 38.12-3.81 2.39c-.16.1-.34.15-.51.15-.33 0-.64-.16-.82-.46a.97.97 0 0 1 .31-1.34l3.81-2.39a.96.96 0 0 1 1.33.31.98.98 0 0 1-.31 1.34zm1.95 3.11-3.81 2.39c-.16.1-.34.15-.51.15-.33 0-.64-.16-.82-.46a.973.973 0 0 1 .31-1.34l3.81-2.38a.961.961 0 0 1 1.33.31c.28.45.13 1.05-.31 1.33zm11.18-19.08-.69 1.87a.974.974 0 0 0 .91 1.31c.39 0 .77-.24.91-.63l.69-1.87a.974.974 0 0 0-.57-1.25.97.97 0 0 0-1.25.57zm5.91 12.43 1.98.2h.1c.49 0 .91-.37.96-.87a.974.974 0 0 0-.87-1.06l-1.98-.2a.974.974 0 0 0-1.06.87c-.05.53.34 1.01.87 1.06zm-.03-7.32a.98.98 0 0 0-1.34-.31l-1.15.72a.98.98 0 0 0-.31 1.34c.18.29.5.46.82.46.18 0 .35-.05.51-.15l1.15-.72c.46-.29.6-.89.32-1.34z"/></svg>