<svg xmlns="http://www.w3.org/2000/svg" enable-background="new 0 0 512 512" viewBox="0 0 512 512"><rect width="101" height="10" y="102" fill="#c4c1ab"/><rect width="81" height="10" x="20" y="137" fill="#c4c1ab"/><rect width="54" height="10" x="47" y="172" fill="#c4c1ab"/><rect width="293.7" height="256.4" x="75" y="80" fill="#c4c1ab"/><rect width="293.7" height="47.7" x="75" y="336.3" fill="#db3328"/><polygon fill="#b5100b" points="222.7 366.1 201.8 348.2 151.7 348.2 130.8 366.1 130.8 384 222.7 384"/><polygon fill="#db3328" points="368.7 192 465.5 192 507 288 507 384 368.7 384"/><polygon fill="#b5100b" points="469.7 366.1 448.8 348.2 398.7 348.2 377.8 366.1 377.8 384 469.7 384"/><rect width="9.1" height="144.3" x="368.7" y="192" fill="#b5100b"/><polygon fill="#c4c1ab" points="390.3 214.9 452 214.9 478.5 276.2 478.5 291.1 440.3 291.1 427.3 268.7 390.3 268.7"/><polygon fill="#747e6c" points="397 221 454.8 221 452 215 390 215 390 269 397 269"/><rect width="24" height="10" x="390" y="283" fill="#1f3f77"/><rect width="22" height="32.7" x="485" y="320" fill="#747e6c"/><rect width="15.5" height="26.5" x="491.5" y="326.1" fill="#c4c1ab"/><circle cx="176.7" cy="394.8" r="37.3" fill="#1f3f77"/><path fill="#0a2751" d="M194.8,379.3c-1.6,17.7-15.9,32-33.6,33.6c-0.1,0-0.3,0-0.4,0c-7.2,0.6-9.5,10-3.3,13.8
			c6.2,3.7,13.6,5.7,21.5,5.3c18.7-1.1,33.9-16.3,35-35c0.5-7.9-1.5-15.3-5.3-21.5c-3.8-6.2-13.2-4-13.8,3.3
			C194.9,379,194.9,379.1,194.8,379.3z"/><circle cx="423.7" cy="394.8" r="37.3" fill="#1f3f77"/><path fill="#0a2751" d="M441.8,379.3c-1.6,17.7-15.9,32-33.6,33.6c-0.1,0-0.3,0-0.4,0c-7.2,0.6-9.5,10-3.3,13.8
			c6.2,3.7,13.6,5.7,21.5,5.3c18.7-1.1,33.9-16.3,35-35c0.5-7.9-1.5-15.3-5.3-21.5c-3.8-6.2-13.2-4-13.8,3.3
			C441.9,379,441.9,379.1,441.8,379.3z"/><circle cx="423.7" cy="394.8" r="14.1" fill="#0a2751"/><circle cx="176.7" cy="394.8" r="14.1" fill="#0a2751"/><rect width="241" height="202.1" x="101.4" y="107.1" fill="#747e6c"/><rect width="227.3" height="186.7" x="115" y="122.5" fill="#ebeadf"/></svg>