<svg id="SvgjsSvg1001" width="288" height="288" xmlns="http://www.w3.org/2000/svg" version="1.1" xmlns:xlink="http://www.w3.org/1999/xlink" xmlns:svgjs="http://svgjs.com/svgjs"><defs id="SvgjsDefs1002"></defs><g id="SvgjsG1008"><svg xmlns="http://www.w3.org/2000/svg" viewBox="0 0 64 64" width="288" height="288"><g data-name="Landscape Potrait" fill="#000000" class="color000 svgShape"><path fill="#e12b38" d="M64,36V56a8,8,0,0,1-8,8H14a8,8,0,0,1-8-8V36a8,8,0,0,1,8-8H56A8,8,0,0,1,64,36Z" class="color00bebd svgShape"></path><path fill="#ffffff" d="M58,41.44v9.12a2,2,0,0,0,1.37,1.9l.94.31a1,1,0,0,1,.69.95V55a6,6,0,0,1-6,6H15a6,6,0,0,1-6-6V37a6,6,0,0,1,6-6H55a6,6,0,0,1,6,6v1.29a1,1,0,0,1-.68.94l-1,.31A2,2,0,0,0,58,41.44Z" class="colorfff svgShape"></path><circle cx="56" cy="35" r="1" fill="#ff8066" class="colord9d9d9 svgShape"></circle><circle cx="52" cy="35" r="1" fill="#ff8066" class="colord9d9d9 svgShape"></circle><rect width="6" height="6" x="43" y="43" fill="#4d4d4d" rx="1" transform="rotate(90 46 46)" class="colorffac00 svgShape"></rect><rect width="6" height="6" x="43" y="52" fill="#4d4d4d" rx="1" transform="rotate(90 46 55)" class="colorffac00 svgShape"></rect><rect width="6" height="6" x="43" y="34" fill="#4d4d4d" rx="1" transform="rotate(90 46 37)" class="colorffac00 svgShape"></rect><rect width="6" height="6" x="34" y="43" fill="#4d4d4d" rx="1" class="colorffac00 svgShape"></rect><rect width="6" height="6" x="34" y="52" fill="#4d4d4d" rx="1" class="colorffac00 svgShape"></rect><rect width="6" height="6" x="34" y="34" fill="#4d4d4d" rx="1" class="colorffac00 svgShape"></rect><path fill="#e12b38" d="M38,28v3H15a6,6,0,0,0-6,6V55a6,6,0,0,0,2.71,5C7.83,60,8,60,7.05,60a7.94,7.94,0,0,1-1-4V36a8,8,0,0,1,8-8Z" class="color00aaa8 svgShape"></path><path fill="#f3f3f3" d="M34,35v4a1,1,0,0,0,1,1h3v3H35a1,1,0,0,0-1,1v4a1,1,0,0,0,1,1h3a13.29,13.29,0,0,1-.2,3H35a1,1,0,0,0-1,1v4a1,1,0,0,0,.33.74A10,10,0,0,1,28,60H11.71A6,6,0,0,1,9,55V37a6,6,0,0,1,6-6H38v3H35A1,1,0,0,0,34,35Z" class="colorf3f3f3 svgShape"></path><path fill="#4d4d4d" d="M35 52h2.8a10.11 10.11 0 01-3.47 5.74A1 1 0 0134 57V53A1 1 0 0135 52zM38 34v6H35a1 1 0 01-1-1V35a1 1 0 011-1zM35 43h3v6H35a1 1 0 01-1-1V44A1 1 0 0135 43z" class="colorea9706 svgShape"></path><rect width="36" height="58" fill="#e12b38" rx="8" class="color50d9d7 svgShape"></rect><path fill="#ffffff" d="M33,9V49a6,6,0,0,1-6,6H9a6,6,0,0,1-6-6V9A6,6,0,0,1,9,3h1.29a1,1,0,0,1,.94.68l.31.95A2,2,0,0,0,13.44,6h9.12a2,2,0,0,0,1.9-1.37l.31-.94A1,1,0,0,1,25.72,3H27A6,6,0,0,1,33,9Z" class="colorfff svgShape"></path><circle cx="30" cy="9" r="1" fill="#ff8066" class="colord9d9d9 svgShape"></circle><circle cx="26" cy="9" r="1" fill="#ff8066" class="colord9d9d9 svgShape"></circle><rect width="6" height="6" x="15" y="15" fill="#4d4d4d" rx="1" class="colorffac00 svgShape"></rect><rect width="6" height="6" x="24" y="15" fill="#4d4d4d" rx="1" class="colorffac00 svgShape"></rect><rect width="6" height="6" x="6" y="15" fill="#4d4d4d" rx="1" class="colorffac00 svgShape"></rect><rect width="6" height="6" x="15" y="24" fill="#4d4d4d" rx="1" class="colorffac00 svgShape"></rect><rect width="6" height="6" x="24" y="24" fill="#4d4d4d" rx="1" class="colorffac00 svgShape"></rect><rect width="6" height="6" x="6" y="24" fill="#4d4d4d" rx="1" class="colorffac00 svgShape"></rect><rect width="6" height="6" x="15" y="33" fill="#4d4d4d" rx="1" class="colorffac00 svgShape"></rect><rect width="6" height="6" x="24" y="33" fill="#4d4d4d" rx="1" class="colorffac00 svgShape"></rect><rect width="6" height="6" x="6" y="33" fill="#4d4d4d" rx="1" class="colorffac00 svgShape"></rect><path fill="#ff8066" d="M25,52H11a1,1,0,0,1,0-2H25a1,1,0,0,1,0,2Z" class="colord9d9d9 svgShape"></path><path fill="#4d4d4d" d="M42,18a1,1,0,0,1-.71-.29l-3-3a1,1,0,0,1,0-1.42l3-3a1,1,0,0,1,1.42,1.42L40.41,14l2.3,2.29A1,1,0,0,1,42,18Z" class="colorffac00 svgShape"></path><path fill="#4d4d4d" d="M50,25a1,1,0,0,1-1-1V18a3,3,0,0,0-3-3H40a1,1,0,0,1,0-2h6a5,5,0,0,1,5,5v6A1,1,0,0,1,50,25Z" class="colorffac00 svgShape"></path><path fill="#4d4d4d" d="M49.29,25.71l-3-3a1,1,0,0,1,1.42-1.42L50,23.59l2.29-2.3a1,1,0,0,1,1.42,1.42l-3,3A1,1,0,0,1,49.29,25.71Z" class="colorffac00 svgShape"></path></g></svg></g></svg>