<?xml version="1.0" encoding="UTF-8"?>
<!DOCTYPE svg PUBLIC "-//W3C//DTD SVG 1.1//EN" "http://www.w3.org/Graphics/SVG/1.1/DTD/svg11.dtd">
<!-- Creator: CorelDRAW 2019 (64-Bit Evaluation Version) -->
<svg xmlns="http://www.w3.org/2000/svg" xml:space="preserve" width="8.5in" height="11in" version="1.1" style="shape-rendering:geometricPrecision; text-rendering:geometricPrecision; image-rendering:optimizeQuality; fill-rule:evenodd; clip-rule:evenodd"
viewBox="0 0 8500 11000"
 xmlns:xlink="http://www.w3.org/1999/xlink"
 data-name="Layer 1">
 <defs>
  <style type="text/css">
   <![CDATA[
    .str0 {stroke:#3F3D56;stroke-width:10.42;stroke-miterlimit:2.61313}
    .fil1 {fill:none}
    .fil11 {fill:#4B4B4D}
    .fil4 {fill:#47465A}
    .fil6 {fill:#7A799C}
    .fil7 {fill:#9493B6}
    .fil2 {fill:#E9646E}
    .fil10 {fill:#F199A0}
    .fil3 {fill:#F2F2F2}
    .fil9 {fill:#FBBEBE}
    .fil8 {fill:#FF6584}
    .fil5 {fill:black;fill-opacity:0.101961}
    .fil0 {fill:#E12B38;fill-opacity:0.301961}
   ]]>
  </style>
 </defs>
 <g id="Layer_x0020_1">
  <metadata id="CorelCorpID_0Corel-Layer"/>
  <polygon class="fil0" points="5294.55,2590.35 6136.23,2590.35 6136.23,2276.9 5294.55,2276.9 "/>
  <polygon class="fil0" points="6693.48,2056.32 7535.16,2056.32 7535.16,1742.87 6693.48,1742.87 "/>
  <polygon class="fil0" points="6751.53,3025.71 7593.21,3025.71 7593.21,2712.26 6751.53,2712.26 "/>
  <polygon class="fil0" points="4058.14,3385.6 4899.82,3385.6 4899.82,3072.15 4058.14,3072.15 "/>
  <polygon class="fil0" points="3791.13,4674.24 4632.81,4674.24 4632.81,4360.79 3791.13,4360.79 "/>
  <polygon class="fil0" points="5062.36,4645.22 5904.04,4645.22 5904.04,4331.77 5062.36,4331.77 "/>
  <polyline class="fil1 str0" points="6693.48,1897.62 6136.23,2426.37 6751.52,2868.98 "/>
  <line class="fil1 str0" x1="5294.54" y1="2426.37" x2="4478.98" y2= "3072.15" />
  <polyline class="fil1 str0" points="4211.97,4360.55 4478.98,3385.6 5483.2,4331.77 "/>
  <polygon class="fil0" points="-382.54,2913.27 459.15,2913.27 459.15,2599.82 -382.54,2599.82 "/>
  <polygon class="fil0" points="1016.4,2379.24 1858.08,2379.24 1858.08,2065.79 1016.4,2065.79 "/>
  <polygon class="fil0" points="1074.45,3348.63 1916.13,3348.63 1916.13,3035.17 1074.45,3035.17 "/>
  <polygon class="fil0" points="-1618.94,3708.52 -777.26,3708.52 -777.26,3395.06 -1618.94,3395.06 "/>
  <polygon class="fil0" points="-1885.95,4997.16 -1044.27,4997.16 -1044.27,4683.71 -1885.95,4683.71 "/>
  <polygon class="fil0" points="-614.72,4968.14 226.96,4968.14 226.96,4654.69 -614.72,4654.69 "/>
  <polyline class="fil1 str0" points="1016.4,2220.54 459.15,2749.29 1074.44,3191.9 "/>
  <line class="fil1 str0" x1="-382.54" y1="2749.29" x2="-1198.1" y2= "3395.06" />
  <polyline class="fil1 str0" points="-1465.11,4683.46 -1198.1,3708.52 -193.88,4654.68 "/>
  <line class="fil1 str0" x1="1916.13" y1="3191.9" x2="2870.64" y2= "3191.9" />
  <rect class="fil2" x="2442.17" y="3031.47" width="989.58" height="312.5"/>
  <line class="fil1 str0" x1="3433.03" y1="3187.72" x2="4058.14" y2= "3187.72" />
  <line class="fil1 str0" x1="2437.43" y1="3187.72" x2="1858.08" y2= "2220.54" />
  <ellipse class="fil3" cx="5311.96" cy="9182.51" rx="4583.33" ry="1020.83"/>
  <polygon class="fil4" points="7436.79,5822.15 6989.85,8061.43 6893.1,8061.43 6882.46,8044.89 6851.63,7996.93 7238.67,5905.07 7297.42,5880.47 "/>
  <polygon class="fil5" points="7297.42,5880.47 6882.46,8044.89 6851.63,7996.93 7238.67,5905.07 "/>
  <polygon class="fil4" points="8109.5,8872.37 7994.59,8909.41 7966.67,8918.44 7929.8,8835.5 7297.42,5950.78 7363.17,5936.04 7501.3,5905.07 "/>
  <polygon class="fil5" points="7994.59,8909.41 7966.67,8918.44 7929.8,8835.5 7297.42,5950.78 7363.17,5936.04 "/>
  <polygon class="fil4" points="2631.08,5822.15 2529.72,8724.92 2413.55,8750.72 2405.31,8752.56 2373.05,8692.67 2437.56,5849.79 2499.62,5840.94 "/>
  <polygon class="fil5" points="2499.62,5840.94 2413.55,8750.72 2405.31,8752.56 2373.05,8692.67 2437.56,5849.79 "/>
  <polygon class="fil4" points="3234.68,9752.42 3114.51,9773.15 3101.05,9775.45 3064.2,9697.13 2479.03,5905.07 2495.89,5899.96 2585.01,5872.82 "/>
  <polygon class="fil5" points="3114.51,9773.15 3101.05,9775.45 3064.2,9697.13 2479.03,5905.07 2495.89,5899.96 "/>
  <path class="fil6" d="M5778.06 5587.16l447.41 571.69c27.49,35.11 69.63,55.66 114.25,55.66 5.63,0 11.3,-0.35 16.88,-0.99l1836.65 -215.1c73.08,-8.56 128.2,-70.49 128.2,-144.08l0 -423.83 -2543.39 156.66z"/>
  <path class="fil4" d="M7284.74 5679.31l124.41 0 0 179.55c-0,25.52 -20.7,46.22 -46.23,46.22l-31.95 0c-25.53,0 -46.23,-20.7 -46.23,-46.22l0 -179.55z"/>
  <path class="fil6" d="M2479.03 5951.15l447.41 571.69c27.5,35.11 69.64,55.66 114.26,55.66 5.63,0 11.3,-0.35 16.88,-0.99l1836.65 -215.1c73.07,-8.56 128.19,-70.5 128.19,-144.09l0 -423.82 -2543.39 156.65z"/>
  <path class="fil4" d="M3985.71 6043.31l124.4 0 0 179.55c-0,25.52 -20.7,46.22 -46.23,46.22l-31.95 0c-25.53,-0 -46.22,-20.7 -46.22,-46.23l-0 -179.54 0 0z"/>
  <path class="fil4" d="M2993.05 6240.69l5463.12 -636.35c40.5,-4.72 71.04,-39.03 71.04,-79.8 0,-30.33 -17.11,-58.1 -44.2,-71.74l-977.26 -491.48c-157.58,-79.31 -331.72,-120.6 -508.2,-120.6 -38.25,0 -76.78,1.93 -114.76,5.8l-4853.54 494.93c-47.29,4.94 -83.23,44.84 -83.23,92.4 0,24.22 9.47,47.5 26.37,64.84l565.2 579.87c103.21,105.89 245.02,165.7 392.92,165.7 20.83,0 41.93,-1.2 62.56,-3.55l-0.03 -0.02z"/>
  <path class="fil4" d="M9057.2 5518.09l-58.44 -32.3c0,0 -63.09,46.44 -114.48,242.08 -51.39,195.64 96.05,2.12 96.05,2.12l64.51 -133.62 12.36 -78.28z"/>
  <path class="fil4" d="M8432.03 7310.39c0,0 -59.9,281.06 -87.54,359.39 -13.55,38.33 -78.98,73.4 -151.5,100.22 -64.32,23.93 -130.94,41.39 -198.69,51.79 -78.33,9.22 -1082.78,-147.44 -1571.19,-253.42 -329.03,-71.37 -371.56,-153.25 -364.28,-199.05 2.34,-13.59 8.89,-26.17 18.71,-35.91 9.81,-9.74 483.8,-327.14 654.28,-483.8 170.48,-156.66 506.83,-32.25 875.44,32.25 368.61,64.5 824.76,428.52 824.76,428.52z"/>
  <path class="fil4" d="M8998.77 5485.79c0,0 225.77,147.44 -534.48,451.54 0,0 -413.22,232.98 -359.43,1192.74 2.53,43.12 15.7,85.02 38.26,121.88 78.44,129.01 246.52,455.6 -33.62,496.15l-0 73.74c0,0 506.83,-253.42 562.13,-469.97 55.29,-216.56 239.59,-1419.14 331.75,-1529.72 92.15,-110.58 152.05,-285.67 -4.61,-336.35z"/>
  <path class="fil5" d="M8192.99 7770c-64.32,23.93 -130.94,41.39 -198.69,51.8 -78.33,9.22 -1082.78,-147.44 -1571.19,-253.42 -329.03,-71.37 -371.56,-153.25 -364.28,-199.05 216.28,73.95 918.57,308.66 1170.6,328.06 299.49,23.04 871.66,87.08 915.02,43.54 16.69,-16.73 33.78,0.96 48.53,29.07z"/>
  <path class="fil4" d="M5561.5 9687.91l437.72 -1999.69c0,0 78.33,-211.95 258.02,-202.73l165.88 82.93c0,0 -276.46,-64.51 -336.35,147.44 -59.9,211.95 -442.33,1972.05 -442.33,1972.05l-82.94 0z"/>
  <polygon class="fil4" points="6612.04,8775.61 6787.12,7554.59 6865.46,7554.59 6685.76,8775.61 "/>
  <path class="fil4" d="M8289.2 9968.97l-165.87 -1907.54c0,0 0,-161.26 82.94,-239.59 82.94,-78.33 350.68,-301.77 350.68,-301.77 0,0 68.61,-16.15 123.91,140.51 55.29,156.66 437.72,1723.24 437.72,1723.24l-73.72 32.25 -474.58 -1806.17 -327.14 308.71c0,0 -64.51,115.19 -32.25,221.17 32.26,105.98 152.05,1829.21 152.05,1829.21l-73.72 0z"/>
  <polygon class="fil4" points="7777.76,7775.76 8192.44,7895.56 8284.59,7808.01 8045,7775.76 "/>
  <path class="fil6" d="M4091.26 4412.7l67.24 1008.58 1469.82 -142.83 -58.49 -985.93c-3.09,-52.38 -46.51,-93.28 -98.99,-93.28 -2.77,0 -5.56,0.12 -8.31,0.35l-1280.64 107.71c-51.35,4.33 -90.85,47.28 -90.85,98.81 0,2.19 0.07,4.42 0.22,6.6l0 -0z"/>
  <polygon class="fil6" points="6121.33,5568.72 4656.11,5728.57 4600.82,5734.6 4172.32,5458.15 4172.32,5398.24 5628.31,5267.12 "/>
  <polygon class="fil5" points="4656.11,5728.57 4600.82,5734.6 4172.32,5458.15 4172.32,5404.52 "/>
  <polygon class="fil7" points="4190.75,4403 4241.44,5301.48 5531.56,5181.69 5485.48,4306.24 "/>
  <polygon class="fil5" points="4960.22,5550.3 5116.87,5656.28 5591.46,5610.19 5430.19,5508.83 "/>
  <polygon class="fil7" points="4319.76,5421.29 4517.89,5568.72 5784.98,5448.93 5559.21,5301.48 "/>
  <rect class="fil8" x="6568.26" y="4059.74" width="935.34" height="935.34"/>
  <polygon class="fil5" points="6568.26,4995.08 7503.6,4995.08 7503.6,4059.74 6568.26,4059.74 "/>
  <path class="fil9" d="M6890.39 4492.6c0,0 131.94,357.35 0,423.33 -131.94,65.97 472.81,0 472.81,0l170.43 -137.44c0,0 -384.84,-109.96 -329.87,-362.85 54.98,-252.89 -313.37,76.97 -313.37,76.97z"/>
  <path class="fil5" d="M6890.39 4492.6c0,0 131.94,357.35 0,423.33 -131.94,65.97 472.81,0 472.81,0l170.43 -137.44c0,0 -384.84,-109.96 -329.87,-362.85 54.98,-252.89 -313.37,76.97 -313.37,76.97z"/>
  <path class="fil9" d="M5807.33 8077.13c0,0 494.8,698.21 412.33,890.63 -82.47,192.42 -38.48,313.37 -203.42,379.35 -164.93,65.98 -208.91,186.93 -65.97,181.43 142.94,-5.5 329.87,-43.98 357.35,-93.46 27.49,-49.48 93.46,-285.88 186.93,-318.87 93.46,-32.99 269.39,-159.44 142.94,-313.37 -126.45,-153.94 -445.06,-720.94 -420.45,-778.3 24.61,-57.36 -409.71,52.6 -409.71,52.6z"/>
  <path class="fil7" d="M6840.91 6697.19c0,0 -1022.58,65.97 -1286.47,313.37 -263.89,247.4 230.91,1171.02 285.88,1182.02 54.98,11 483.8,-32.99 467.31,-153.94 -16.5,-120.95 -307.87,-615.75 -307.87,-615.75 0,0 379.35,-137.44 588.26,-170.43 208.91,-32.98 439.82,-186.93 439.82,-186.93l-186.92 -368.35z"/>
  <path class="fil9" d="M6373.59 6543.25c0,0 16.49,610.25 170.43,632.24 153.94,21.99 0,-467.31 0,-467.31l-5.5 -186.93 -164.93 21.99z"/>
  <path class="fil2" d="M6840.91 4943.41c0,0 -285.88,-82.46 -340.86,137.44 -54.98,219.91 -71.47,978.59 -71.47,978.59l-98.96 604.75c0,0 181.43,-54.98 219.91,-27.49l230.91 -291.38 60.48 -1401.92z"/>
  <path class="fil9" d="M7231.53 8194.2c0,0 192.13,377.72 307.59,372.22 115.45,-5.5 225.41,-76.97 280.39,148.44 54.98,225.41 -11,164.93 54.98,296.88 65.97,131.94 76.97,362.85 -49.48,417.83 -126.45,54.98 -241.9,60.48 -247.4,0 -5.5,-60.48 109.96,-60.48 -21.99,-274.89 -131.95,-214.41 -412.33,-604.75 -527.78,-643.24 -115.45,-38.48 203.7,-317.25 203.7,-317.25z"/>
  <path class="fil7" d="M7731.54 6471.78c0,0 395.84,659.73 137.44,852.15 -258.39,192.42 -1028.08,560.77 -1028.08,560.77 0,0 412.33,280.39 434.32,373.85 21.99,93.46 -197.92,346.36 -274.89,351.85 -76.97,5.5 -302.38,-252.9 -544.28,-318.87 -241.9,-65.97 -390.34,-538.78 -126.45,-714.71 263.89,-175.93 511.29,-467.31 511.29,-467.31l-76.93 -423.27 967.56 -214.47z"/>
  <path class="fil9" d="M7388.41 4271.69c0,233.8 -239.49,427.07 -473.29,427.07 -233.76,0 -423.33,-189.57 -423.33,-423.33 0,-233.76 189.57,-423.33 423.33,-423.33 233.8,0 473.29,185.79 473.29,419.58z"/>
  <path class="fil10" d="M7022.33 4882.94c0,0 379.35,-164.93 379.35,-186.93 0,-21.99 219.91,49.48 269.39,93.46 49.48,43.98 76.97,38.48 109.96,126.45 32.99,87.96 -164.93,907.13 -164.93,907.13 0,0 109.96,632.24 170.43,692.71 60.47,60.48 -489.3,148.44 -489.3,148.44 0,0 -362.85,65.97 -423.33,93.46 -60.48,27.49 -170.43,65.97 -148.44,0 21.99,-65.97 115.45,-115.45 -43.98,-197.92 0,0 54.98,-269.39 0,-390.34 -54.98,-120.95 -307.87,-560.77 -104.46,-879.63 203.42,-318.87 296.88,-434.32 296.88,-434.32 0,0 71.47,60.47 148.44,27.48z"/>
  <path class="fil9" d="M7143.28 6383.82c0,0 -428.82,190.2 -558.02,207.8 -129.2,17.6 -519.54,116.57 -305.13,204.53 214.41,87.96 538.78,-43.98 538.78,-43.98l456.31 -192.42 -131.95 -175.93z"/>
  <path class="fil5" d="M7604.97 4866.07c0,0 158.35,-76.6 202.33,192.79 43.98,269.39 197.92,1121.54 0,1247.98 -197.92,126.45 -654.23,329.87 -654.23,329.87 0,0 -269.39,-181.43 -142.94,-247.4 126.45,-65.97 428.82,-252.9 472.81,-318.87 43.98,-65.97 88.42,-802.36 11.45,-923.31 -76.97,-120.95 110.58,-281.06 110.58,-281.06z"/>
  <path class="fil2" d="M7594.09 4800.47c0,0 219.91,-11 263.89,258.39 43.98,269.39 197.92,1121.54 0,1247.98 -197.92,126.45 -654.23,329.87 -654.23,329.87 0,0 -269.39,-181.43 -142.94,-247.4 126.45,-65.97 428.82,-252.9 472.81,-318.87 43.98,-65.97 -32.99,-753.19 -109.96,-874.14 -76.97,-120.95 170.43,-395.84 170.43,-395.84z"/>
  <path class="fil11" d="M6810.85 3562.81c-67.49,9.19 -139.89,33.87 -173.85,92.92 -16.62,28.89 -21.99,62.79 -34.79,93.56 -35.33,84.92 -121.13,135.64 -183.07,203.63 -80.72,88.61 -120.81,222.14 -73.2,332.15 18.44,42.6 48.37,79.09 71.08,119.58 63.34,112.95 66.72,248.6 68.52,378.08l3.54 254.6c0.54,38.87 0.97,78.54 -10.73,115.61 -11.7,37.08 -37.84,71.8 -74.92,83.51 20.43,7.08 41.95,10.71 63.59,10.71 65.52,0 126.68,-33.09 162.52,-87.92 1.61,10.19 2.43,20.59 2.43,30.93 0,55.02 -22.87,107.59 -63.08,145.11 100.79,-23.74 185.31,-97.05 238.56,-185.85 53.25,-88.81 77.94,-192.11 89.01,-295.06 5.85,-54.45 7.91,-110.76 -9.29,-162.76 -12.12,-36.62 -33.25,-69.45 -53.31,-102.4 -51.72,-84.93 -98.3,-175.27 -114.97,-273.31 -16.67,-98.04 0.07,-205.6 63.72,-282 48.36,-58.44 120.35,-92.31 196.24,-92.31 1.65,0 3.36,0.03 4.98,0.06 77.87,2.96 148.67,46.3 186.76,114.31 14.7,27.69 35.64,65.2 65.44,55.48 5.48,-2.33 10.91,-4.99 16.12,-7.91 33.23,-15.13 70.98,14.71 85.64,48.16 46.22,105.48 -38.94,220.64 -47.74,335.47 -8.19,106.82 51.37,207.56 122.56,287.63 122.85,137.57 283.67,236.44 462.03,283.86 -26.13,-6.59 -49.58,-21.17 -67.04,-41.66 11.64,0.39 23.45,0.71 35.16,0.71 60.8,0 121.6,-6.34 181.01,-18.8 -77.36,-58.3 -155.26,-117.09 -219.84,-189.28 -64.58,-72.19 -115.73,-159.54 -129.66,-255.4 -18.69,-128.65 29.22,-267.95 -25.56,-385.84 -50.08,-107.78 -174.29,-168 -219.65,-277.85 -46.07,-111.58 -75.94,-208.52 -197.94,-257.09 -133.1,-53.04 -276.41,-90.19 -420.27,-70.62z"/>
 </g>
</svg>
